<svg width="50" height="50" viewBox="0 0 50 50" fill="none" xmlns="http://www.w3.org/2000/svg">

<!-- skills -->
  <g id="html">
    <path fill-rule="evenodd" clip-rule="evenodd" d="M18.3125 42.0645L27.2623 6.6875L31.4375 7.87241L22.4878 43.3125L18.3125 42.0645Z" fill="#7572D5"/>
    <path fill-rule="evenodd" clip-rule="evenodd" d="M13.5025 12.6875L16.5625 15.9278L7.995 25.0001L16.5625 34.0721L13.5025 37.3125L1.875 25.0001L13.5025 12.6875Z" fill="#7572D5"/>
    <path fill-rule="evenodd" clip-rule="evenodd" d="M36.4976 12.6875L33.4375 15.9278L42.0051 25.0001L33.4375 34.0721L36.4976 37.3125L48.125 25.0001L36.4976 12.6875Z" fill="#7572D5"/>
  </g>
  <g id="css">
    <path d="M38.0508 10.8437L12.946 10.8377L13.3515 15.7547L32.6381 15.7577L32.1519 20.8502H19.5034L19.9607 25.6742H31.7357L31.0391 32.2806L25.4969 33.7886L19.8662 32.2701L19.508 28.3134H14.5358L15.0876 35.5411L25.4969 38.7341L35.7309 35.8652L38.0493 10.8452L38.0508 10.8437ZM5.49841 2.56873H45.4984L41.86 42.9999L25.4542 47.5687L9.1399 42.9969L5.49841 2.56873Z" fill="#7572D5"/>
  </g>
  <g id="react">
    <g clip-path="url(#clip0_1_39)">
      <path d="M47.8125 25C47.8125 22.0833 44.6875 19.375 39.4792 17.5L38.5417 17.1875V16.7708C39.6875 11.0416 38.8542 6.7708 36.25 5.2083C33.6458 3.6458 29.7917 5.10414 25.625 8.74997L25 9.37497L24.7917 9.16664H24.5833C20.3125 5.2083 16.1458 3.85414 13.5417 5.31247C10.9375 6.7708 10.2083 10.8333 11.25 16.1458C11.3596 16.4838 11.4295 16.8333 11.4583 17.1875L10.3125 17.6041C5.20833 19.375 2.1875 22.0833 2.1875 25C2.1875 27.9166 5.52083 30.8333 10.7292 32.7083L11.4583 32.9166C11.3296 33.2854 11.2593 33.672 11.25 34.0625C10.2083 39.2708 11.1458 43.2291 13.5417 44.6875C15.9375 46.1458 20.3125 44.7916 24.4792 41.1458L25.1042 40.625L25.9375 41.4583C28.8542 43.9583 31.7708 45.3125 34.0625 45.3125C34.8708 45.3309 35.6671 45.1137 36.3542 44.6875C38.9583 43.2291 39.8958 38.9583 38.75 33.5416V33.3333C38.705 33.1619 38.6702 32.988 38.6458 32.8125H38.9583C44.4792 30.8333 47.8125 28.0208 47.8125 25ZM44.7917 25C44.7917 26.25 42.5 28.4375 38.0208 29.8958H37.8125C37.2664 28.2202 36.6051 26.5843 35.8333 25C36.5625 23.3333 37.1875 21.6666 37.7083 20.1041L38.5417 20.3125C42.7083 21.7708 44.7917 23.75 44.7917 25ZM27.9167 39.1666L27.0833 38.5416C28.2761 37.2201 29.3891 35.8287 30.4167 34.375L35.7292 33.5416C35.8333 33.75 35.8333 33.9583 35.9375 34.0625C36.3087 35.9492 36.379 37.8829 36.1458 39.7916C35.9995 40.7045 35.5608 41.5452 34.8958 42.1875C33.8542 42.8125 31.0417 41.9791 27.9167 39.1666ZM26.5625 34.5833L25.1042 36.4583L23.4375 34.5833H26.5625ZM12.2917 20C12.8152 21.7174 13.4771 23.3895 14.2708 25C13.4765 26.646 12.8146 28.3528 12.2917 30.1041L11.6667 29.8958C9.84256 29.3201 8.1454 28.4008 6.66667 27.1875C6.28377 26.9455 5.95605 26.6257 5.7048 26.2489C5.45356 25.872 5.2844 25.4465 5.20833 25C5.20833 23.75 7.29167 21.7708 11.25 20.4166L12.2917 20ZM23.4375 15.4166L25 13.6458L26.5625 15.4166H23.4375ZM34.8958 7.81247C36.0417 8.43747 36.6667 11.5625 35.7292 16.1458C35.734 16.2022 35.7272 16.2591 35.7093 16.3128C35.6914 16.3665 35.6627 16.416 35.625 16.4583L30.4167 15.625C29.3891 14.1712 28.2761 12.7799 27.0833 11.4583L27.7083 10.9375C31.0417 8.0208 33.75 7.18747 34.8958 7.81247ZM17.5 18.8541L16.6667 20.2083L15.9375 21.5625C15.625 20.8333 15.4167 20.1041 15.1042 19.2708L17.5 18.8541ZM15.1042 30.7291C15.4167 30 15.625 29.2708 15.9375 28.4375L16.6667 29.7916L17.5 31.1458L15.1042 30.7291ZM32.5 25C31.9699 26.142 31.3788 27.2548 30.7292 28.3333C30.1042 29.4791 29.375 30.5208 28.75 31.5625H21.25C20.5208 30.4166 19.7917 29.375 19.2708 28.3333C18.6161 27.2577 18.0248 26.1447 17.5 25C18.0054 23.8458 18.5974 22.7315 19.2708 21.6666C19.8693 20.5874 20.5301 19.544 21.25 18.5416C23.7457 18.3334 26.2543 18.3334 28.75 18.5416C29.4792 19.5833 30.1042 20.625 30.7292 21.6666C31.4026 22.7315 31.9946 23.8458 32.5 25ZM33.3333 20.2083L32.5 18.8541L34.8958 19.375C34.6639 20.1208 34.3856 20.8514 34.0625 21.5625L33.3333 20.2083ZM32.5 31.1458L33.3333 29.7916L34.0625 28.3333L35 30.7291L32.5 31.1458ZM22.8125 11.3541H22.9167L19.5833 15.5208L14.375 16.3541C14.2708 16.0416 14.2708 15.8333 14.1667 15.5208C13.3333 11.25 13.9583 8.3333 15 7.81247C15.2766 7.63082 15.61 7.55672 15.9375 7.60414C17.3958 7.60414 19.8958 8.6458 22.7083 11.1458L22.8125 11.3541ZM14.1667 34.5833C14.1857 34.2617 14.256 33.9452 14.375 33.6458L19.6875 34.375C20.689 35.8481 21.8034 37.2412 23.0208 38.5416L22.8125 38.75L22.6042 38.9583C21.184 40.2738 19.5211 41.2999 17.7083 41.9791C17.3107 42.1874 16.875 42.3133 16.4275 42.3491C15.98 42.3849 15.5299 42.3299 15.1042 42.1875C13.9583 41.5625 13.3333 38.75 14.1667 34.5833Z" fill="#7572D5"/>
      <path d="M25 20.4166C24.0894 20.3959 23.1932 20.647 22.4259 21.1379C21.6586 21.6287 21.0549 22.3371 20.692 23.1726C20.3291 24.008 20.2233 24.9327 20.3882 25.8285C20.5532 26.7243 20.9812 27.5507 21.6179 28.2022C22.2545 28.8536 23.0709 29.3006 23.9627 29.4861C24.8545 29.6715 25.7813 29.587 26.6249 29.2434C27.4685 28.8998 28.1905 28.3126 28.6989 27.5568C29.2073 26.801 29.4789 25.9108 29.4792 24.9999C29.4795 23.8022 29.0109 22.6519 28.1738 21.7953C27.3366 20.9387 26.1974 20.4438 25 20.4166Z" fill="#7572D5"/>
    </g>
    <defs>
      <clipPath id="clip0_1_39">
        <rect width="50" height="50" fill="white"/>
      </clipPath>
    </defs>
  </g>
  <g id="typescript">
    <path d="M5 25V45H45V5H5V25ZM37.235 23.4067C38.2517 23.66 39.025 24.1117 39.7367 24.8483C40.105 25.2417 40.6517 25.9583 40.695 26.1317C40.7083 26.1817 38.9683 27.3483 37.915 28.0033C37.8767 28.0283 37.7233 27.8633 37.5533 27.61C37.0367 26.86 36.4983 26.5367 35.6733 26.48C34.46 26.3967 33.68 27.0317 33.6867 28.0917C33.6756 28.3523 33.7343 28.6112 33.8567 28.8417C34.1233 29.3933 34.62 29.725 36.1733 30.3967C39.0383 31.63 40.2633 32.4417 41.025 33.5967C41.875 34.885 42.0667 36.9433 41.4883 38.4733C40.855 40.1367 39.28 41.2667 37.0633 41.64C36.3783 41.7617 34.7533 41.7433 34.0167 41.61C32.41 41.3233 30.8867 40.53 29.9467 39.4883C29.5783 39.0833 28.86 38.0217 28.905 37.9467C28.9233 37.92 29.0883 37.8183 29.2717 37.7117C29.4517 37.61 30.1233 37.2217 30.7583 36.8533L31.9083 36.1867L32.15 36.5433C32.4867 37.0567 33.2217 37.7617 33.6667 37.9967C34.9433 38.67 36.695 38.575 37.5583 37.8C37.7319 37.6538 37.8694 37.4693 37.9599 37.2612C38.0504 37.053 38.0915 36.8267 38.08 36.6C38.08 36.1367 38.0217 35.9333 37.78 35.5833C37.47 35.14 36.835 34.7667 35.0317 33.9833C32.9683 33.095 32.08 32.5433 31.2667 31.6667C30.759 31.0881 30.3841 30.4055 30.1683 29.6667C30.0167 29.1017 29.9783 27.685 30.0983 27.115C30.5233 25.12 32.0283 23.7317 34.2 23.3183C34.905 23.185 36.5433 23.235 37.235 23.4067ZM27.845 25.0767L27.8583 26.715H22.65V41.5083H18.9667V26.715H13.7633V25.1083C13.7633 24.2183 13.7817 23.475 13.8067 23.4583C13.8267 23.4317 16.995 23.4183 20.835 23.425L27.8267 23.445L27.845 25.0767Z" fill="#7572D5"/>
  </g>
  <g id="styledComponents">
    <path d="M37.2591 6.25L36.9888 7.64963C36.5708 10.3021 36.7221 11.061 37.8682 12.0454L38.9747 12.9546L37.8286 18.0305C37.1438 21.0588 36.3041 23.5968 35.7707 24.4308C35.313 25.1503 34.7796 26.2099 34.6642 26.7791C34.4732 27.4592 33.8245 28.1429 32.8334 28.7478C31.9576 29.2418 30.2385 30.5663 29.0203 31.6294C28.0472 32.4993 27.3769 33.0326 27.0129 33.2617L25.8235 34.196C25.4415 34.8046 25.2253 35.295 25.1424 35.6672C25.0595 36.0503 25.1063 36.3044 25.2289 36.4905C25.3478 36.6695 25.5532 36.7948 25.8343 36.8736C26.1671 36.951 26.5097 36.9788 26.8507 36.9559C27.6222 36.9035 28.3858 36.7691 29.1284 36.555C29.3807 36.487 29.5789 36.4225 29.7519 36.3653C30.0186 36.0395 30.6349 35.4238 31.7269 34.3535C34.6246 31.5149 35.731 29.9613 34.5885 30.3802C34.1669 30.5305 34.3579 30.1511 35.0823 29.3922C36.6104 27.9138 37.4862 25.6801 39.317 18.6748C40.7659 13.1443 40.7659 13.0656 41.8327 13.0656C42.3336 13.0656 43.75 13.1515 43.75 13.1515V6.25H40.4992H37.2591ZM24.4216 18.0806C23.3692 18.0735 21.1058 19.6664 14.3303 25.1611C14.0383 25.8519 14.0131 26.328 14.1464 26.6359C14.2329 26.8471 14.3915 26.9938 14.6114 27.1012C14.8276 27.2086 15.1087 27.2731 15.4187 27.2981C16.035 27.3518 16.763 27.2552 17.3504 27.1406L17.7469 27.0511C17.8826 26.8704 18.0608 26.7254 18.2659 26.6287C18.6839 26.3996 20.4391 24.8103 22.1943 23.1064C25.2829 19.9993 26.0073 18.5961 24.7495 18.1415C24.6463 18.1007 24.5326 18.08 24.4216 18.0806ZM32.336 20.2391C31.4098 20.2642 29.7411 21.3309 26.8831 23.5968C25.4487 24.753 24.5405 25.3759 24.0539 25.5047L22.1654 26.9867C21.4554 28.2753 21.3509 29.0736 21.5383 29.5139C21.5852 29.6225 21.6533 29.7208 21.7387 29.8031C21.8241 29.8855 21.925 29.9502 22.0357 29.9936C22.311 30.1015 22.6046 30.1562 22.9006 30.1546C23.608 30.1471 24.3112 30.0448 24.991 29.8504C25.3453 29.7559 25.6952 29.6461 26.0398 29.521L26.1443 29.4781L26.3353 29.3779C26.6957 28.9161 27.5246 28.0462 28.5626 27.044C31.8423 23.9011 33.5181 21.6674 33.1758 20.8333C33.0208 20.4288 32.7541 20.2248 32.336 20.2391ZM23.5998 24.1051C23.3331 24.1337 22.7349 24.5919 21.6573 25.5298C20.1003 26.8972 18.4028 27.6847 17.8154 27.3339C17.6788 27.3645 17.5419 27.3932 17.4045 27.4198C16.8062 27.5379 16.0602 27.6346 15.3934 27.5809C15.0793 27.562 14.7714 27.4855 14.4852 27.3554C14.2153 27.2328 13.9999 27.0164 13.8797 26.7468C13.7464 26.4247 13.7464 26.0238 13.8978 25.5119L11.5551 27.4234L6.2536 31.7798V38.8423L23.6251 25.2506C23.6217 25.1018 23.6411 24.9533 23.6827 24.8103C23.8161 24.3306 23.8089 24.0872 23.5998 24.1087V24.1051ZM31.0746 26.3925C30.8115 26.3925 30.3718 26.7612 29.669 27.5021C28.714 28.5152 27.2111 29.496 26.4146 29.6964L26.292 29.7609C26.1613 29.8145 26.0291 29.8646 25.8956 29.9112C25.6794 29.9828 25.3982 30.0687 25.0739 30.1546C24.4252 30.33 23.6179 30.4911 22.897 30.4732C22.5572 30.4728 22.2207 30.4072 21.9059 30.2799C21.6093 30.1585 21.3716 29.9275 21.2428 29.6356C21.0338 29.138 21.1167 28.44 21.5744 27.4485L6.25 39.4366V43.75H12.9823L27.2615 32.6103C27.6327 32.2022 28.1914 31.6438 28.9446 30.9457C30.9629 29.0879 31.4206 28.4472 31.4206 27.4986C31.4206 26.7612 31.3377 26.3889 31.0746 26.3889V26.3925ZM34.4732 33.3727L33.2514 34.5826C32.5667 35.2269 31.3449 36.0216 30.5088 36.3617L30.343 36.4333L30.3322 36.4512L30.2961 36.487C30.2637 36.512 30.2493 36.5156 30.2241 36.5263C29.8903 36.6518 29.5512 36.7629 29.2077 36.8592C28.4441 37.08 27.6586 37.218 26.8651 37.2709C26.4899 37.2948 26.1132 37.2622 25.7478 37.1743C25.4307 37.1049 25.1508 36.9213 24.9622 36.6588C24.7892 36.3939 24.7387 36.0395 24.836 35.6028C24.9134 35.2919 25.0284 34.9914 25.1784 34.7079L13.6563 43.75H28.9807L30.8115 41.6667C33.3271 38.7529 34.4732 36.6695 34.4732 34.8869V33.3727Z" fill="#7572D5"/>
  </g>
  <g id="figma">
    <path d="M17.7083 4.16663C14.2565 4.16663 11.4583 6.96486 11.4583 10.4166C11.4583 13.8684 14.2565 16.6666 17.7083 16.6666H32.2916C35.7435 16.6666 38.5416 13.8684 38.5416 10.4166C38.5416 6.96486 35.7435 4.16663 32.2916 4.16663H17.7083Z" fill="#7572D5"/>
    <path d="M32.2917 18.75C28.8399 18.75 26.0417 21.5481 26.0417 25C26.0417 28.4519 28.8399 31.25 32.2917 31.25C35.7436 31.25 38.5417 28.4519 38.5417 25C38.5417 21.5481 35.7436 18.75 32.2917 18.75Z" fill="#7572D5"/>
    <path d="M11.4583 25C11.4583 21.5481 14.2565 18.75 17.7083 18.75H23.9583V31.25H17.7083C14.2565 31.25 11.4583 28.4519 11.4583 25Z" fill="#7572D5"/>
    <path d="M17.7083 33.3334C14.2565 33.3334 11.4583 36.1315 11.4583 39.5834C11.4583 43.0352 14.2565 45.8334 17.7083 45.8334C21.1601 45.8334 23.9583 43.0352 23.9583 39.5834V33.3334H17.7083Z" fill="#7572D5"/>
  </g>

  <!-- social -->
  <g id="instagram">
    <path d="M15.6515 2.1001H5.34841C3.55685 2.1001 2.09998 3.5564 2.09998 5.34727V8.77811V15.6529C2.09998 17.4438 3.55685 18.9001 5.34841 18.9001H15.6515C17.4431 18.9001 18.9 17.4438 18.9 15.6529V8.77156V5.34071C18.8934 3.5564 17.4365 2.1001 15.6515 2.1001ZM16.5834 4.03528H16.9575V4.40264V6.88229L14.1159 6.88885L14.1094 4.04184L16.5834 4.03528ZM8.0981 8.77156C8.63622 8.03028 9.50904 7.53829 10.4934 7.53829C11.4778 7.53829 12.3506 8.02372 12.8887 8.77156C13.2431 9.25699 13.4465 9.85394 13.4465 10.4968C13.4465 12.1237 12.1209 13.4554 10.4869 13.4554C8.85279 13.4554 7.54029 12.1237 7.54029 10.4968C7.54029 9.85394 7.75029 9.25699 8.0981 8.77156ZM17.2593 15.6464C17.2593 16.532 16.5375 17.2536 15.6515 17.2536H5.34841C4.46248 17.2536 3.7406 16.532 3.7406 15.6464V8.77156H6.24748C6.03091 9.30291 5.90623 9.88674 5.90623 10.4968C5.90623 13.029 7.96685 15.0888 10.5 15.0888C13.0331 15.0888 15.0937 13.029 15.0937 10.4968C15.0937 9.88674 14.969 9.30291 14.7525 8.77156H17.2593V15.6464Z" fill="#7572D5"/>
  </g>
  <g id="telegram">
    <path d="M18.9058 4.76425L16.3705 16.7205C16.1791 17.5642 15.6805 17.7742 14.9718 17.377L11.1086 14.5303L9.24478 16.3233C9.03836 16.5297 8.86614 16.7019 8.4683 16.7019L8.74613 12.7679L15.9055 6.29861C16.2169 6.02138 15.8377 5.86716 15.4218 6.14499L6.5709 11.7184L2.76049 10.5255C1.93181 10.2668 1.9168 9.69677 2.93331 9.29893L17.8371 3.55692C18.5272 3.29829 19.1308 3.70993 18.9058 4.76425Z" fill="#1F1F20"/>
  </g>
  <g id="vk">
    <path d="M18.1695 13.9943C17.8037 13.5394 17.388 13.1316 16.986 12.7373C16.8431 12.597 16.6953 12.452 16.5528 12.3078C16.1438 11.8934 16.1289 11.7378 16.4527 11.2671C16.6768 10.9426 16.9143 10.6178 17.1441 10.3036C17.3524 10.0185 17.5679 9.72375 17.7745 9.42802L17.8169 9.36721C18.2116 8.80127 18.6198 8.21607 18.8371 7.51012C18.8935 7.32387 18.9527 7.04979 18.8173 6.82061C18.6819 6.59162 18.4194 6.52175 18.2336 6.48912C18.1417 6.47298 18.0505 6.47077 17.9658 6.47077L15.3808 6.46886L15.3594 6.46866C14.9686 6.46866 14.7052 6.65951 14.5543 7.05219C14.4102 7.42737 14.2519 7.8269 14.0713 8.20678C13.7118 8.96323 13.2553 9.83449 12.5947 10.5611L12.5668 10.592C12.4888 10.6789 12.4004 10.7773 12.3358 10.7773C12.3259 10.7773 12.3151 10.7753 12.3029 10.7713C12.1661 10.7161 12.0743 10.3729 12.0784 10.2132C12.0785 10.211 12.0785 10.2088 12.0785 10.2066L12.0767 7.11074C12.0767 7.10001 12.076 7.08937 12.0746 7.07873C12.0089 6.57547 11.8632 6.26219 11.3128 6.1505C11.2982 6.14748 11.2833 6.146 11.2684 6.146H8.58049C8.14257 6.146 7.90128 6.33043 7.67446 6.60647C7.61323 6.68026 7.48579 6.83388 7.54895 7.02023C7.61305 7.20935 7.82109 7.24979 7.88884 7.26292C8.22511 7.32924 8.41466 7.54237 8.46835 7.91477C8.56208 8.56145 8.5736 9.25168 8.5046 10.087C8.48537 10.3192 8.44731 10.4985 8.38461 10.6517C8.37004 10.6874 8.31839 10.8041 8.26572 10.8041C8.24898 10.8041 8.20056 10.7973 8.11237 10.7344C7.90387 10.5863 7.75131 10.3751 7.57346 10.1142C6.96842 9.22821 6.46063 8.25215 6.02086 7.12962C5.85777 6.71639 5.55317 6.48505 5.16279 6.47825C4.73384 6.47149 4.34494 6.46823 3.97402 6.46823C3.56875 6.46823 3.19303 6.47211 2.82614 6.48002C2.51206 6.48577 2.29481 6.58333 2.1805 6.7702C2.06601 6.95722 2.07345 7.20288 2.20265 7.50025C3.23692 9.88279 4.17467 11.6151 5.24334 13.1174C5.99215 14.1686 6.74322 14.8962 7.60676 15.407C8.51654 15.9463 9.53609 16.2085 10.7236 16.2085C10.8582 16.2085 10.9974 16.2051 11.1378 16.1983C11.8278 16.1635 12.0838 15.9047 12.1162 15.2085C12.1316 14.8527 12.1691 14.4796 12.3379 14.1614C12.4444 13.9609 12.5438 13.9609 12.5764 13.9609C12.6393 13.9609 12.7173 13.9909 12.801 14.0471C12.9512 14.1487 13.08 14.2848 13.1856 14.4036C13.2849 14.5166 13.3832 14.6307 13.4816 14.7448C13.6938 14.9911 13.9133 15.2458 14.1426 15.4874C14.6444 16.0164 15.1972 16.2491 15.8322 16.1986H18.2022C18.2072 16.1986 18.2123 16.1984 18.2174 16.198C18.4535 16.1819 18.6581 16.0462 18.7785 15.8256C18.9278 15.5525 18.9247 15.204 18.7705 14.8932C18.5955 14.5418 18.3684 14.2415 18.1695 13.9943Z" fill="#7572D5"/>
  </g>
  <g id="linkedin">
    <path d="M5.80637 7.88672H2.53296V18.3629H5.80637V7.88672Z" fill="#7572D5"/>
    <path d="M4.10088 2.94043C2.89385 2.94043 2.1001 3.72106 2.1001 4.75753C2.1001 5.77432 2.86761 6.57463 4.05496 6.57463H4.0812C5.31447 6.57463 6.08198 5.76776 6.07542 4.75753C6.04918 3.72106 5.30791 2.94043 4.10088 2.94043Z" fill="#7572D5"/>
    <path d="M14.7478 7.78809C12.8716 7.78809 11.6974 8.81144 11.4809 9.53303V7.88648H7.80078C7.8467 8.75896 7.80078 18.3627 7.80078 18.3627H11.4809V12.7015C11.4809 12.38 11.4678 12.0652 11.5596 11.8421C11.8089 11.2124 12.3534 10.5564 13.3308 10.5564C14.61 10.5564 15.1873 11.5273 15.1873 12.9442V18.3627H18.9002V12.5375C18.9002 9.29687 17.0765 7.78809 14.7478 7.78809Z" fill="#7572D5"/>
  </g>
  <!-- arrows -->
  <g id="arrowGoTop">
    <g clip-path="url(#clip0_1_190)">
      <rect width="30" height="30" fill="black" fill-opacity="0.3"/>
      <path d="M13.8072 11.2806V22H16.1928V11.2806L21.3134 16.0812L23 14.5L15 7L7 14.5L8.6866 16.0812L13.8072 11.2806Z" fill="white"/>
    </g>
    <defs>
      <clipPath id="clip0_1_190">
      <rect width="30" height="30" fill="white"/>
      </clipPath>
    </defs>
  </g>
  <!-- quote -->
  <g id="quote">
    <path d="M13.5417 20.8333C13.0771 20.8333 12.6313 20.9041 12.1876 20.9687C12.3313 20.4853 12.4792 19.9937 12.7167 19.552C12.9542 18.9103 13.3251 18.3541 13.6938 17.7937C14.0021 17.1874 14.5459 16.777 14.9459 16.2583C15.3646 15.7541 15.9355 15.4187 16.3876 14.9999C16.8313 14.5624 17.4126 14.3437 17.8751 14.0353C18.3584 13.7583 18.7792 13.452 19.2292 13.3062L20.3521 12.8437L21.3396 12.4333L20.3292 8.39575L19.0855 8.69575C18.6876 8.79575 18.2021 8.91242 17.6501 9.052C17.0855 9.15617 16.4834 9.44159 15.8126 9.702C15.1501 9.99784 14.3834 10.1978 13.6709 10.6728C12.9542 11.127 12.1271 11.5062 11.398 12.1145C10.6917 12.7416 9.83964 13.2853 9.21048 14.0833C8.52298 14.8291 7.84381 15.6124 7.31673 16.5041C6.70631 17.3541 6.29173 18.2874 5.85423 19.2103C5.45839 20.1333 5.13964 21.077 4.87923 21.9937C4.38548 23.8312 4.16464 25.577 4.07923 27.0708C4.00839 28.5666 4.05006 29.8103 4.13756 30.7103C4.16881 31.1353 4.22714 31.5478 4.26881 31.8333L4.32089 32.1833L4.37506 32.1708C4.7456 33.9017 5.59861 35.4923 6.8354 36.7586C8.07219 38.025 9.64223 38.9153 11.3639 39.3266C13.0856 39.738 14.8885 39.6535 16.5641 39.0829C18.2398 38.5124 19.7197 37.4791 20.8326 36.1026C21.9455 34.7261 22.646 33.0627 22.853 31.3047C23.06 29.5467 22.7651 27.7661 22.0024 26.1687C21.2397 24.5714 20.0403 23.2226 18.5431 22.2784C17.0458 21.3342 15.3118 20.8331 13.5417 20.8333ZM36.4584 20.8333C35.9938 20.8333 35.548 20.9041 35.1042 20.9687C35.248 20.4853 35.3959 19.9937 35.6334 19.552C35.8709 18.9103 36.2417 18.3541 36.6105 17.7937C36.9188 17.1874 37.4626 16.777 37.8626 16.2583C38.2813 15.7541 38.8521 15.4187 39.3042 14.9999C39.748 14.5624 40.3292 14.3437 40.7917 14.0353C41.2751 13.7583 41.6959 13.452 42.1459 13.3062L43.2688 12.8437L44.2563 12.4333L43.2459 8.39575L42.0021 8.69575C41.6042 8.79575 41.1188 8.91242 40.5667 9.052C40.0021 9.15617 39.4001 9.44159 38.7292 9.702C38.0688 9.99992 37.3001 10.1978 36.5876 10.6749C35.8709 11.1291 35.0438 11.5083 34.3146 12.1166C33.6084 12.7437 32.7563 13.2874 32.1271 14.0833C31.4396 14.8291 30.7605 15.6124 30.2334 16.5041C29.623 17.3541 29.2084 18.2874 28.7709 19.2103C28.3751 20.1333 28.0563 21.077 27.7959 21.9937C27.3021 23.8312 27.0813 25.577 26.9959 27.0708C26.9251 28.5666 26.9667 29.8103 27.0542 30.7103C27.0855 31.1353 27.1438 31.5478 27.1855 31.8333L27.2376 32.1833L27.2917 32.1708C27.6623 33.9017 28.5153 35.4923 29.7521 36.7586C30.9889 38.025 32.5589 38.9153 34.2806 39.3266C36.0022 39.738 37.8052 39.6535 39.4808 39.0829C41.1564 38.5124 42.6363 37.4791 43.7492 36.1026C44.8622 34.7261 45.5627 33.0627 45.7697 31.3047C45.9767 29.5467 45.6818 27.7661 44.9191 26.1687C44.1564 24.5714 42.957 23.2226 41.4598 22.2784C39.9625 21.3342 38.2285 20.8331 36.4584 20.8333Z" fill="#7572D5"/>
  </g>
</svg>
